<svg xmlns="http://www.w3.org/2000/svg" xmlns:xlink="http://www.w3.org/1999/xlink" width="29" height="29" viewBox="0 0 29 29" fill="none">
<path d="M27.0159 10.3355L12.4004 6.69064C11.3039 6.41786 10.1829 7.09027 9.91012 8.18771L6.26529 22.8032C5.99073 23.9007 6.66404 25.0189 7.76058 25.2935L22.3752 28.9392C23.4717 29.212 24.5927 28.5377 24.8655 27.4422L28.5112 12.8276C28.7848 11.7301 28.1125 10.61 27.0159 10.3355ZM26.3526 12.9934L23.701 23.6243C23.6104 23.9886 23.2361 24.2133 22.8718 24.1218L9.5848 20.8087C9.21958 20.718 8.99483 20.3447 9.08546 19.9786L11.7371 9.34949C11.8277 8.98337 12.202 8.76043 12.5672 8.85015L25.8533 12.1651C26.2194 12.2539 26.4441 12.6291 26.3526 12.9934ZM12.9994 12.5349C12.9994 12.5653 13.0002 12.5957 13.0017 12.6261C13.0031 12.6565 13.0054 12.6868 13.0084 12.7171C13.0114 12.7474 13.0151 12.7776 13.0196 12.8077C13.024 12.8378 13.0292 12.8678 13.0352 12.8976C13.0411 12.9275 13.0478 12.9572 13.0552 12.9867C13.0625 13.0162 13.0707 13.0455 13.0795 13.0747C13.0883 13.1038 13.0979 13.1327 13.1081 13.1613C13.1184 13.19 13.1293 13.2184 13.141 13.2465C13.1526 13.2746 13.1649 13.3024 13.178 13.3299C13.191 13.3574 13.2046 13.3846 13.219 13.4114C13.2333 13.4383 13.2483 13.4647 13.264 13.4909C13.2796 13.517 13.2959 13.5427 13.3128 13.568C13.3297 13.5933 13.3472 13.6181 13.3654 13.6426C13.3835 13.667 13.4022 13.691 13.4215 13.7146C13.4408 13.7381 13.4607 13.7611 13.4812 13.7837C13.5016 13.8062 13.5226 13.8282 13.5441 13.8498C13.5656 13.8713 13.5876 13.8922 13.6102 13.9127C13.6327 13.9331 13.6558 13.953 13.6793 13.9723C13.7028 13.9916 13.7268 14.0103 13.7513 14.0285C13.7757 14.0466 13.8006 14.0641 13.8259 14.081C13.8512 14.0979 13.8769 14.1142 13.903 14.1298C13.9291 14.1455 13.9556 14.1605 13.9824 14.1749C14.0093 14.1892 14.0364 14.2029 14.0639 14.2159C14.0914 14.2289 14.1192 14.2412 14.1474 14.2529C14.1755 14.2645 14.2039 14.2755 14.2325 14.2857C14.2612 14.296 14.2901 14.3055 14.3192 14.3144C14.3483 14.3232 14.3776 14.3313 14.4072 14.3387C14.4367 14.3461 14.4664 14.3527 14.4962 14.3587C14.5261 14.3646 14.556 14.3698 14.5861 14.3743C14.6162 14.3788 14.6464 14.3825 14.6767 14.3855C14.707 14.3884 14.7373 14.3907 14.7678 14.3922C14.7981 14.3937 14.8286 14.3944 14.859 14.3944C14.8894 14.3944 14.9198 14.3937 14.9503 14.3922C14.9806 14.3907 15.011 14.3884 15.0413 14.3855C15.0715 14.3825 15.1017 14.3788 15.1319 14.3743C15.1619 14.3698 15.1919 14.3646 15.2218 14.3587C15.2516 14.3527 15.2813 14.3461 15.3108 14.3387C15.3403 14.3313 15.3697 14.3232 15.3988 14.3144C15.4279 14.3055 15.4568 14.296 15.4855 14.2857C15.5141 14.2755 15.5425 14.2645 15.5706 14.2529C15.5987 14.2412 15.6265 14.2289 15.6541 14.2159C15.6816 14.2029 15.7088 14.1892 15.7356 14.1749C15.7624 14.1605 15.7889 14.1455 15.815 14.1298C15.8411 14.1142 15.8668 14.0979 15.8921 14.081C15.9174 14.0641 15.9423 14.0466 15.9668 14.0285C15.9912 14.0103 16.0152 13.9916 16.0387 13.9723C16.0622 13.953 16.0852 13.9331 16.1078 13.9127C16.1304 13.8922 16.1524 13.8713 16.1739 13.8498C16.1954 13.8282 16.2164 13.8062 16.2368 13.7837C16.2573 13.7611 16.2771 13.7381 16.2965 13.7146C16.3158 13.691 16.3345 13.667 16.3526 13.6426C16.3707 13.6181 16.3882 13.5933 16.4052 13.568C16.4221 13.5427 16.4383 13.517 16.454 13.4909C16.4696 13.4647 16.4846 13.4383 16.499 13.4114C16.5133 13.3846 16.527 13.3574 16.54 13.3299C16.553 13.3024 16.5654 13.2746 16.577 13.2465C16.5886 13.2184 16.5996 13.19 16.6098 13.1613C16.6201 13.1327 16.6296 13.1038 16.6385 13.0747C16.6473 13.0455 16.6554 13.0162 16.6628 12.9867C16.6702 12.9572 16.6769 12.9275 16.6828 12.8976C16.6888 12.8678 16.694 12.8378 16.6984 12.8077C16.7029 12.7776 16.7066 12.7474 16.7096 12.7171C16.7126 12.6868 16.7148 12.6565 16.7163 12.6261C16.7178 12.5957 16.7186 12.5653 16.7186 12.5349C16.7186 12.5044 16.7179 12.474 16.7164 12.4436C16.7149 12.4132 16.7127 12.3828 16.7097 12.3525C16.7068 12.3222 16.7031 12.292 16.6986 12.2619C16.6942 12.2317 16.689 12.2017 16.6831 12.1719C16.6771 12.142 16.6705 12.1123 16.6631 12.0828C16.6557 12.0532 16.6476 12.0239 16.6388 11.9948C16.63 11.9656 16.6204 11.9367 16.6102 11.908C16.5999 11.8794 16.589 11.851 16.5774 11.8228C16.5657 11.7947 16.5534 11.7669 16.5404 11.7393C16.5274 11.7118 16.5137 11.6846 16.4994 11.6577C16.4851 11.6309 16.4701 11.6044 16.4544 11.5783C16.4388 11.5522 16.4225 11.5264 16.4056 11.5011C16.3887 11.4758 16.3712 11.4509 16.3531 11.4264C16.3349 11.402 16.3162 11.378 16.2969 11.3544C16.2776 11.3309 16.2577 11.3078 16.2373 11.2853C16.2168 11.2627 16.1959 11.2406 16.1744 11.2191C16.1528 11.1976 16.1308 11.1766 16.1082 11.1561C16.0857 11.1357 16.0626 11.1158 16.0391 11.0965C16.0156 11.0771 15.9916 11.0584 15.9671 11.0403C15.9427 11.0221 15.9178 11.0046 15.8925 10.9877C15.8672 10.9707 15.8415 10.9544 15.8154 10.9388C15.7893 10.9231 15.7628 10.9081 15.7359 10.8938C15.7091 10.8794 15.6819 10.8657 15.6544 10.8527C15.6269 10.8397 15.599 10.8273 15.5709 10.8157C15.5428 10.804 15.5144 10.7931 15.4857 10.7828C15.4571 10.7725 15.4282 10.763 15.399 10.7542C15.3699 10.7453 15.3405 10.7372 15.311 10.7298C15.2815 10.7224 15.2518 10.7157 15.2219 10.7098C15.1921 10.7038 15.1621 10.6986 15.132 10.6941C15.1018 10.6897 15.0716 10.6859 15.0414 10.683C15.0111 10.68 14.9807 10.6777 14.9503 10.6762C14.9199 10.6747 14.8894 10.674 14.859 10.674C14.8285 10.674 14.7981 10.6747 14.7677 10.6762C14.7373 10.6777 14.707 10.68 14.6766 10.683C14.6463 10.6859 14.6161 10.6897 14.586 10.6941C14.5559 10.6986 14.5259 10.7038 14.496 10.7098C14.4662 10.7157 14.4365 10.7224 14.407 10.7298C14.3774 10.7372 14.3481 10.7453 14.319 10.7542C14.2898 10.763 14.2609 10.7725 14.2323 10.7828C14.2036 10.7931 14.1752 10.804 14.1471 10.8157C14.1189 10.8273 14.0911 10.8397 14.0636 10.8527C14.0361 10.8657 14.0089 10.8794 13.982 10.8938C13.9552 10.9081 13.9287 10.9231 13.9026 10.9388C13.8765 10.9544 13.8508 10.9707 13.8255 10.9877C13.8002 11.0046 13.7753 11.0221 13.7508 11.0403C13.7264 11.0584 13.7024 11.0771 13.6789 11.0965C13.6553 11.1158 13.6323 11.1357 13.6097 11.1561C13.5872 11.1766 13.5652 11.1976 13.5436 11.2191C13.5221 11.2406 13.5011 11.2627 13.4807 11.2853C13.4602 11.3078 13.4404 11.3309 13.4211 11.3544C13.4018 11.378 13.3831 11.402 13.3649 11.4264C13.3468 11.4509 13.3293 11.4758 13.3124 11.5011C13.2955 11.5264 13.2792 11.5522 13.2636 11.5783C13.2479 11.6044 13.2329 11.6309 13.2186 11.6577C13.2042 11.6846 13.1906 11.7118 13.1776 11.7393C13.1645 11.7669 13.1522 11.7947 13.1406 11.8228C13.129 11.851 13.118 11.8794 13.1078 11.908C13.0975 11.9367 13.088 11.9656 13.0792 11.9948C13.0704 12.0239 13.0623 12.0532 13.0549 12.0828C13.0475 12.1123 13.0408 12.142 13.0349 12.1719C13.029 12.2017 13.0238 12.2317 13.0194 12.2619C13.0149 12.292 13.0112 12.3222 13.0083 12.3525C13.0053 12.3828 13.0031 12.4132 13.0016 12.4436C13.0001 12.474 12.9994 12.5044 12.9994 12.5349ZM20.5927 15.2363C20.4694 14.8575 20.135 14.7741 19.8496 15.0505L17.1825 17.626C16.8971 17.9006 16.4947 17.8471 16.2899 17.5055L15.8631 16.7977C15.6574 16.4561 15.2115 16.3446 14.8708 16.5503L10.5372 19.1349C10.1956 19.3388 10.2391 19.5599 10.6242 19.6568L13.4326 20.3556C13.8187 20.4525 14.4494 20.6102 14.8363 20.7081L18.154 21.5345C18.5401 21.6297 19.1717 21.7874 19.5578 21.8834L22.3652 22.5839C22.7513 22.6809 22.9606 22.4743 22.8374 22.0955L20.5927 15.2363ZM3.1189 7.22983L15.8948 2.30088C16.2464 2.16585 16.6452 2.34166 16.7802 2.69237L18.145 6.25655L20.5791 6.86371L18.4513 1.31582C18.0444 0.261884 16.8491 -0.268255 15.7951 0.138638L1.74053 5.55786C0.686596 5.96564 0.156457 7.16096 0.563352 8.2149L5.09901 19.9912L5.96354 16.5231L2.72559 8.1143C2.59147 7.76177 2.76728 7.36396 3.1189 7.22983Z"   fill="#828282" >
</path>
</svg>
